PathFileType	4	(X/Y/Z)	c:\Git\powerlifing_model_clean\simulations\HC835B\Session1\HC835B_OGW_0006\marker_experimental.trc
DataRate	CameraRate	NumFrames	NumMarkers	Units	OrigDataRate	OrigDataStartFrame	OrigNumFrames
240.000000	240.000000	4	38	mm	240.000000	54	433
Frame#	Time	RPSI			LPSI			RASI			LASI			RTH1			RTH2			RTH3			RTH4			RSK1			RSK2			RSK3			RSK4			RCAL1			RCAL2			RCAL3			RST			RPT			RTN			RFMB			RSMB			RVMB			RFMH			RSMH			RVMH			RPM			LTH1			LTH2			LTH3			LTH4			LSK1			LSK2			LSK3			LSK4			LCAL1			LCAL2			LCAL3			LFMH			LVMH			
		X1	Y1	Z1	X2	Y2	Z2	X3	Y3	Z3	X4	Y4	Z4	X5	Y5	Z5	X6	Y6	Z6	X7	Y7	Z7	X8	Y8	Z8	X9	Y9	Z9	X10	Y10	Z10	X11	Y11	Z11	X12	Y12	Z12	X13	Y13	Z13	X14	Y14	Z14	X15	Y15	Z15	X16	Y16	Z16	X17	Y17	Z17	X18	Y18	Z18	X19	Y19	Z19	X20	Y20	Z20	X21	Y21	Z21	X22	Y22	Z22	X23	Y23	Z23	X24	Y24	Z24	X25	Y25	Z25	X26	Y26	Z26	X27	Y27	Z27	X28	Y28	Z28	X29	Y29	Z29	X30	Y30	Z30	X31	Y31	Z31	X32	Y32	Z32	X33	Y33	Z33	X34	Y34	Z34	X35	Y35	Z35	X36	Y36	Z36	X37	Y37	Z37	X38	Y38	Z38	

55	0.225	481.2962646484376	1091.102661132813	-2221.007568359375	591.4835815429689	1085.908813476563	-2225.48388671875	430.1392211914064	1062.78271484375	-2005.39501953125	666.6467895507814	1043.931762695313	-2020.261352539063	361.2518920898438	789.8197021484377	-2004.67626953125	373.5729675292969	797.635437011719	-1946.811157226563	379.0743103027344	720.8286132812501	-1959.1318359375	400.636688232422	728.1002197265626	-1905.065673828125	447.2704162597657	276.8302612304688	-1969.557861328125	445.8502502441407	265.2847595214844	-1908.435546875	455.974578857422	221.2615814208985	-1951.412841796875	466.6599121093751	212.2619628906251	-1892.524169921875	527.8986206054689	80.86112213134767	-2001.175903320313	558.3014526367189	42.97790908813477	-1988.930053710938	495.2339782714845	43.86241531372071	-1999.423461914063	565.7974243164064	59.51226043701173	-1920.478515625	466.1112060546876	57.23350143432619	-1942.711791992188	546.2107543945314	81.89853668212892	-1867.915893554688	539.3825073242189	67.70603942871095	-1834.205078125	491.5542297363282	91.99383544921876	-1831.352905273438	450.0178833007814	35.22086334228516	-1900.100708007813	536.3202514648439	43.33773040771485	-1779.145751953125	481.0969543457032	59.16801834106447	-1772.056030273438	426.1569213867189	32.53695297241212	-1822.528442382813	485.9496154785157	50.77147674560548	-1713.598999023438	747.4881591796876	766.9627685546876	-2122.524658203125	755.5223999023439	757.7777099609376	-2062.513671875	754.8885498046876	684.9920043945314	-2098.949462890625	749.1875000000001	674.8335571289064	-2039.098266601563	716.2692871093751	395.0169677734376	-2365.20947265625	728.2808837890626	344.7394409179688	-2351.6357421875	713.9296875000001	349.9835205078126	-2398.985107421875	709.1014404296876	296.7584228515626	-2379.610107421875	637.2911376953126	319.0661010742188	-2520.18408203125	655.0878295898439	306.7973327636719	-2562.6064453125	600.0770263671876	300.7122497558594	-2543.827392578125	631.9235839843751	96.20418548583987	-2467.81201171875	714.8673095703126	124.1598815917969	-2536.5888671875	
56	0.2291666666666667	480.5688476562501	1092.7705078125	-2214.475830078125	590.7116699218751	1087.54150390625	-2218.9853515625	429.7474060058595	1064.625244140625	-1998.122924804688	666.3311157226564	1045.572021484375	-2013.834838867188	360.8775329589844	790.719665527344	-1999.82958984375	373.3741455078126	798.2329711914065	-1941.918701171875	378.7970886230469	721.2929687500001	-1954.989013671875	400.6124877929689	728.2420654296876	-1900.906982421875	447.5423583984376	277.1289978027344	-1968.925170898438	445.6811828613282	265.2753906250001	-1907.880737304688	456.0340576171876	221.5655059814454	-1950.991333007813	466.4703674316407	212.1843261718751	-1892.1591796875	527.8864746093751	80.91992187500001	-2001.204956054688	558.2672119140626	43.07232666015626	-1988.931396484375	495.2433166503907	43.92821884155274	-1999.448974609375	565.7948608398439	59.5900344848633	-1920.48681640625	466.1304016113282	57.2826271057129	-1942.722412109375	546.2404174804689	81.93619537353517	-1867.910400390625	539.3876953125001	67.67385101318361	-1834.17919921875	491.5672607421876	91.97084045410158	-1831.297119140625	450.0025634765626	35.2311134338379	-1900.135131835938	536.3350219726564	43.31612014770509	-1779.103149414063	481.1307373046876	59.04506301879884	-1772.017822265625	426.1243286132814	32.53520202636719	-1822.539672851563	485.9898071289064	50.62303924560548	-1713.541259765625	747.1693725585939	768.4100341796877	-2113.05126953125	755.7884521484376	760.0639648437501	-2053.008056640625	754.7089233398439	686.6758422851564	-2088.714111328125	749.7778320312501	677.3327636718751	-2028.509033203125	716.2668457031251	397.9721984863282	-2352.100830078125	728.1760253906251	347.4969482421876	-2338.67041015625	713.5439453125001	352.9337158203126	-2385.95068359375	708.5957031250001	299.7221069335938	-2366.615966796875	636.2036132812501	321.9305114746094	-2507.718505859375	654.2984008789064	309.4465332031251	-2549.958251953125	599.2181396484376	303.2109069824219	-2531.42138671875	631.9409790039064	99.34671783447268	-2453.834716796875	715.0948486328126	127.5127716064453	-2522.333251953125	
57	0.2333333333333333	479.8199768066407	1094.529296875	-2207.998291015625	589.9146728515626	1089.275146484375	-2212.526611328125	429.5279541015626	1066.242309570313	-1991.706787109375	666.0238647460939	1047.421264648438	-2007.280639648438	360.4920654296876	791.9073486328127	-1995.0263671875	372.9926452636719	799.0609130859377	-1936.412475585938	378.4227905273438	722.2045288085939	-1950.579711914063	400.6134338378907	728.3684082031251	-1896.837768554688	447.7644958496095	277.6849975585938	-1968.262329101563	445.5164794921876	265.2775573730469	-1907.353759765625	456.1065673828126	221.7526397705079	-1950.704833984375	466.2449951171876	212.1126098632813	-1891.802124023438	527.8345947265626	81.03568267822267	-2001.252807617188	558.2427368164064	43.18620300292969	-1988.973876953125	495.1989135742189	44.00262832641602	-1999.483520507813	565.7371826171876	59.78231048583986	-1920.524658203125	466.130096435547	57.32540130615236	-1942.724243164063	546.2202758789064	81.98714447021486	-1867.908569335938	539.4091186523439	67.68381500244142	-1834.185791015625	491.5270385742189	91.93462371826173	-1831.286499023438	450.0014953613282	35.23599243164063	-1900.121215820313	536.3696289062501	43.2821388244629	-1779.069091796875	481.1539916992189	58.96781158447267	-1771.995849609375	426.1355895996095	32.38254547119141	-1822.592895507813	486.0302124023439	50.48463439941408	-1713.481201171875	746.9592895507814	769.9729614257815	-2103.55029296875	755.9837036132814	762.2702026367189	-2043.430297851563	754.8703613281251	688.5972900390626	-2078.25390625	750.4456176757814	680.0347290039064	-2017.876220703125	716.0439453125001	400.7048339843751	-2339.024658203125	727.9151611328126	350.3604736328126	-2325.624755859375	713.0640258789064	355.7553405761719	-2372.837646484375	708.1371459960939	302.6630249023438	-2353.514892578125	635.2225952148439	324.4712829589844	-2495.314453125	653.7471923828126	311.6794433593751	-2537.2744140625	598.5579223632814	305.2794799804688	-2519.15185546875	631.6820678710939	102.4779510498047	-2439.36865234375	715.4285888671876	130.3438110351563	-2507.381591796875	
58	0.2375	479.0781250000001	1096.380737304688	-2201.5439453125	589.1337890625001	1091.081176757813	-2206.063720703125	429.204559326172	1067.819458007813	-1985.33984375	665.8573608398439	1049.281005859375	-2000.841186523438	360.0428466796876	793.0401611328127	-1990.1513671875	372.8093872070313	799.8120117187502	-1931.44921875	379.6328125000001	722.0487670898439	-1947.786499023438	400.6839599609376	728.6115722656251	-1892.856811523438	447.7383728027345	277.9589538574219	-1967.654296875	445.3065185546876	265.2605590820313	-1906.818481445313	455.9385375976564	222.3401641845704	-1950.105224609375	465.9892883300782	211.9323120117188	-1891.513305664063	527.7761230468751	81.09271240234376	-2001.287109375	558.2106323242189	43.37961196899415	-1989.034790039063	495.1744995117189	44.05783081054688	-1999.501220703125	565.6959838867189	59.90005493164064	-1920.553466796875	466.1078186035157	57.40014266967775	-1942.7138671875	546.1859130859376	82.06084442138673	-1867.890991210938	539.4031372070314	67.7140350341797	-1834.18017578125	491.4771118164064	91.90293121337892	-1831.249267578125	449.9901123046876	35.28399658203126	-1900.113037109375	536.3729248046876	43.27639770507813	-1779.018188476563	481.1444091796876	58.86878204345705	-1771.961669921875	426.221160888672	32.51574325561524	-1822.51953125	486.0347900390626	50.3146095275879	-1713.439575195313	746.7650146484376	771.4886474609377	-2093.99951171875	756.2811279296876	764.6875610351564	-2033.870239257813	754.9815673828126	690.4846801757814	-2067.746826171875	751.0468750000001	682.6973876953126	-2007.194091796875	715.7131958007814	403.3854370117189	-2325.875	727.4880981445314	352.9794921875001	-2312.470947265625	712.5391845703126	358.3522644042969	-2359.6416015625	707.6696777343751	305.2749023437501	-2340.239990234375	634.4052124023439	326.6408996582032	-2482.896484375	653.5029296875001	313.4203186035157	-2524.477783203125	598.0728759765626	307.0232849121094	-2506.953125	631.2255249023439	105.267333984375	-2424.39453125	715.6494750976564	132.7291259765625	-2491.90625	
